<?xml version="1.0" encoding="utf-8" ?>
<svg xmlns="http://www.w3.org/2000/svg" xmlns:xlink="http://www.w3.org/1999/xlink" width="1024" height="1024">
	<path fill="#0DD8CC" transform="scale(2 2)" d="M75.0981 200.901C74.2775 194.533 75.1077 183.797 75.0993 176.85L75.0947 158.352C75.0948 151.832 75.0254 145.308 75.9314 138.835C80.7309 104.547 110.299 76.8514 144.369 72.5904C149.749 71.9175 155.255 72.0674 160.667 72.0679L350.362 72.0716C356.865 72.0701 363.335 71.9316 369.789 72.8993C404.059 78.0369 432.469 108.038 436.438 142.356C437.412 150.783 437.398 159.031 437.393 167.5L437.373 190.591C437.375 196.268 438.33 202.553 437.394 208.134L437.402 345.323C437.409 355.617 437.892 366.336 435.579 376.44C427.311 412.55 393.686 435.696 357.353 435.757L170.975 435.751C155.646 435.764 139.546 437.095 125.072 430.912C99.506 420.975 81.428 399.232 76.2671 372.276C74.244 361.709 75.0978 348.038 75.1035 337.092L75.0999 227.376C75.1001 218.669 74.413 209.555 75.0981 200.901ZM277.66 289.724C271.477 290.077 264.892 289.733 258.73 289.177C257.203 289.039 252.342 287.549 251.396 288.122L251.08 288.839C250.62 288.74 250.527 288.616 250.097 288.848L260.218 300.341C274.065 315.937 270.192 311.814 274.339 330.743C278.046 347.667 283.999 354.263 293.964 366.647C297.836 369.275 301.26 372.584 305.146 375.252C334.667 395.523 373.349 390.786 397.564 364.441C421.459 338.444 421.558 296.984 398.2 270.655C394.759 266.776 390.935 263.637 387.118 260.166C356.046 235.856 311.602 242.611 287.456 273.62C283.5 278.7 280.918 284.239 277.66 289.724Z"/>
	<path fill="#0AD3B6" transform="scale(2 2)" d="M75.0981 200.901C80.2141 218.907 84.6597 228.883 97.724 243.566C100.639 246.843 104.274 251.536 108.198 253.568C109.045 254.527 110.059 255.272 111.079 256.035L111.045 256.189C107.132 254.899 95.7801 242.044 92.9184 238.883L92.6672 239.096L92.869 239.328C96.254 243.286 85.9459 241.533 85.9302 245.806C89.3774 247.67 83.4111 245.649 83.0384 250.987C81.8197 251.979 79.7283 252.526 78.1857 252.117L78.1117 252.75L78.2438 252.856L78.6248 252.617L79.5151 252.601C80.5172 253.859 80.7423 256.059 78.5967 254.227L78.6902 254.234C77.1451 254.617 78.0213 261.269 77.1529 256.509C76.8177 256.564 76.7521 256.579 76.4325 256.472L76.2765 255.595C76.3905 260.292 75.5637 264.856 75.5692 269.558L75.6147 335.523C75.6539 346.471 74.8699 357.977 76.2602 368.865C79.3255 392.869 95.6224 416.271 117.557 426.923C121.386 428.782 125.568 430.867 125.072 430.912C99.506 420.975 81.428 399.232 76.2671 372.276C74.244 361.709 75.0978 348.038 75.1035 337.092L75.0999 227.376C75.1001 218.669 74.413 209.555 75.0981 200.901Z"/>
	<path fill="#0AD3B6" transform="scale(2 2)" d="M277.66 289.724C280.918 284.239 283.5 278.7 287.456 273.62C311.602 242.611 356.046 235.856 387.118 260.166C390.935 263.637 394.759 266.776 398.2 270.655C421.558 296.984 421.459 338.444 397.564 364.441C373.349 390.786 334.667 395.523 305.146 375.252C301.26 372.584 297.836 369.275 293.964 366.647C283.999 354.263 278.046 347.667 274.339 330.743C270.192 311.814 274.065 315.937 260.218 300.341L250.097 288.848C250.527 288.616 250.62 288.74 251.08 288.839L251.396 288.122C252.342 287.549 257.203 289.039 258.73 289.177C264.892 289.733 271.477 290.077 277.66 289.724ZM341.809 259.102C325.362 260.581 311.139 265.987 300.257 278.938C267.717 317.661 298.53 376.928 348.039 373.761C378.803 372.978 403.059 345.951 402.118 315.521C401.217 286.396 379.675 263.233 350.992 259.55C348.089 259.178 344.728 258.607 341.809 259.102Z"/>
	<path fill="#70B1F7" transform="scale(2 2)" d="M302.498 320.67L331.699 320.665C335.568 320.66 339.984 320.149 343.781 320.67C342.018 320.925 331.602 321.08 331.349 321.212C330.279 321.768 329.989 324.146 329.264 325.129C327.16 327.985 314.478 339.781 310.601 339.96C311.549 341.764 316.514 345.986 316.499 347.422C308.489 341.16 304.217 330.364 302.498 320.67Z"/>
	<path fill="#FEC031" transform="scale(2 2)" d="M341.809 274.888L342.238 274.885C343.335 276.801 342.47 280.907 342.47 283.144L342.467 314.02L303.438 314.02L302.881 313.886C302.209 312.412 302.935 310.3 303.201 308.783C306.789 288.367 321.325 276.632 341.809 274.888Z"/>
	<path fill="#1F94F9" transform="scale(2 2)" d="M343.781 320.67C346.509 322.295 369.206 345.27 371.944 348.628C355.389 361.414 332.182 362.05 316.499 347.422C316.514 345.986 311.549 341.764 310.601 339.96C314.478 339.781 327.16 327.985 329.264 325.129C329.989 324.146 330.279 321.768 331.349 321.212C331.602 321.08 342.018 320.925 343.781 320.67Z"/>
	<path fill="#70B1F7" transform="scale(2 2)" d="M350.209 274.888C381.316 280.081 394.409 310.557 380.69 338.035C379.66 339.986 378.478 341.824 377.152 343.586C373.371 340.454 352.508 319.676 350.209 315.956L350.209 274.888Z"/>
	<path fill="#FEFEFE" transform="scale(2 2)" d="M131.196 269.327L131.192 161.687C131.196 140.725 130.988 134.667 154.116 134.719L229.148 134.711C291.748 134.833 326.128 217.25 280.344 262.284C269.264 273.182 258.318 278.049 243.486 282.165C245.264 283.917 248.249 287.605 250.097 288.848L260.218 300.341C274.065 315.937 270.192 311.814 274.339 330.743C278.046 347.667 283.999 354.263 293.964 366.647C292.814 371.837 288.909 375.019 283.794 375.799C280.581 376.288 263.693 376.319 260.491 375.648C248.853 373.208 243.688 356.972 238.625 347.847C227.474 327.751 216.133 305.337 203.768 286.055L173.921 286.055L173.925 354.83C173.919 364.495 173.971 374.973 160.533 375.365C152.97 375.586 140.118 376.585 134.761 371.367C130.012 366.74 131.13 360.29 131.172 354.297L131.196 269.327Z"/>
	<path fill="#2FF5B8" transform="scale(2 2)" d="M173.921 230.427C181.834 230.759 189.9 230.437 197.829 230.427C197.822 233.795 197.348 247.352 198.114 249.571C198.953 249.73 199.788 249.861 200.636 249.967C191.736 250.084 182.822 249.976 173.921 249.967L173.921 230.427Z"/>
	<path fill="#2FF5B8" transform="scale(2 2)" d="M173.921 204.418L197.829 204.418C197.84 211.106 197.911 217.8 197.829 224.487L173.921 224.487C173.908 217.799 173.837 211.105 173.921 204.418Z"/>
	<path fill="#2FF5B8" transform="scale(2 2)" d="M173.921 177.236L197.829 177.236L197.829 198.731L212.367 198.694C214.836 198.67 218.179 198.181 220.505 198.731C215.591 199.096 210.38 198.747 205.432 198.744L173.921 198.731L173.921 177.236Z"/>
	<path fill="#0AD3B6" transform="scale(2 2)" d="M197.829 177.236L217.06 177.221C228.708 177.218 240.034 176.568 249.004 185.491C260.555 196.982 260.743 228.682 248.649 240.69C239.667 249.607 227.664 249.986 215.771 249.984L200.636 249.967C199.788 249.861 198.953 249.73 198.114 249.571C197.348 247.352 197.822 233.795 197.829 230.427L220.505 230.427L220.505 224.487C213.038 224.927 205.32 224.492 197.829 224.487C197.911 217.8 197.84 211.106 197.829 204.418C205.352 204.682 212.972 204.424 220.505 204.418L220.505 198.731C218.179 198.181 214.836 198.67 212.367 198.694L197.829 198.731L197.829 177.236Z"/>
	<path fill="#5AE3EA" transform="scale(2 2)" d="M75.0981 200.901C74.2775 194.533 75.1077 183.797 75.0993 176.85L75.0947 158.352C75.0948 151.832 75.0254 145.308 75.9314 138.835C80.7309 104.547 110.299 76.8514 144.369 72.5904C149.749 71.9175 155.255 72.0674 160.667 72.0679L350.362 72.0716C356.865 72.0701 363.335 71.9316 369.789 72.8993C404.059 78.0369 432.469 108.038 436.438 142.356C437.412 150.783 437.398 159.031 437.393 167.5L437.373 190.591C437.375 196.268 438.33 202.553 437.394 208.134C437.201 207.613 436.82 196.948 436.945 195.41L436.825 195.299C435.908 196.206 432.953 199.337 432.46 200.019L432.972 200.465C431.188 203.861 426.021 204.616 428.302 207.634C423.059 212.917 415.758 214.016 409.946 218.368L409.959 218.597L411.782 218.684L412.01 218.935C409.74 222.868 395.036 226.892 390.482 228.113C385.538 229.439 381.578 228.275 377.588 229.289C372.88 230.486 369.674 234.876 364.544 234.657C364.082 234.637 353.707 237.645 352.934 237.919C348.37 239.534 345.383 240.897 340.736 239.269C340.349 239.635 340.182 239.97 339.633 239.979L338.73 239.997C326.28 240.213 327.105 247.451 317.51 248.178L317.37 248.473L316.872 248.128C316.077 248.71 314.91 250.273 314.42 250.509L314.677 251.136C341.327 241.485 356.404 244.054 380.685 255.484C390.243 259.983 383.094 261.901 395.418 255.485C407.917 248.977 419.055 237.757 426.415 225.911C428.839 222.012 434.196 207.905 434.783 207.176C435.348 207.158 436.158 207.568 435.432 208.032C433.233 209.438 433.037 213.262 432.163 215.562C424.126 236.71 406.647 250.51 387.118 260.166C356.046 235.856 311.602 242.611 287.456 273.62C283.5 278.7 280.918 284.239 277.66 289.724C271.477 290.077 264.892 289.733 258.73 289.177C257.203 289.039 252.342 287.549 251.396 288.122L251.08 288.839C250.62 288.74 250.527 288.616 250.097 288.848C248.249 287.605 245.264 283.917 243.486 282.165C258.318 278.049 269.264 273.182 280.344 262.284C326.128 217.25 291.748 134.833 229.148 134.711L154.116 134.719C130.988 134.667 131.196 140.725 131.192 161.687L131.196 269.327C130.867 266.062 123.726 263.677 120.397 261.624C117.739 259.984 109.99 254.207 108.198 253.568C104.274 251.536 100.639 246.843 97.724 243.566C84.6597 228.883 80.2141 218.907 75.0981 200.901Z"/>
</svg>
